<svg t="1656729437510" class="icon" viewBox="0 0 1024 1024" version="1.1" xmlns="http://www.w3.org/2000/svg" p-id="5284" width="200" height="200"><path d="M512 1024c-56 0-109.028571-3.314286-149.371429-9.485714-21.828571-3.314286-38.857143-7.2-52.114285-12-41.371429-14.857143-47.542857-42.171429-47.542857-57.028572 0-25.142857 18.4-41.371429 27.314285-49.142857 7.2-6.285714 16.685714-13.714286 28.914286-22.742857-109.028571-44.228571-180.457143-121.028571-224.114286-184.914286-34.628571-50.857143-55.657143-98.971429-67.085714-130.4C14.742857 522.285714 6.857143 488.571429 6.857143 468.342857c0-14.285714 4.571429-35.428571 26.4-55.314286 6.628571-6.057143 14.4-11.657143 23.657143-16.914285C70.514286 357.714286 94.857143 303.085714 127.657143 251.428571c47.771429-75.2 97.371429-118.285714 147.771428-128.114285C362.514286 41.485714 442.057143 0 512 0c69.942857 0 149.485714 41.485714 236.571429 123.314286 9.485714 1.828571 18.857143 4.914286 28.342857 9.028571l8.228571-30.171428c6.742857-24.914286 29.6-42.4 55.542857-42.4 5.142857 0 10.285714 0.685714 15.2 2.057142l37.257143 10.171429c30.628571 8.457143 48.685714 40.114286 40.342857 70.742857l-32 117.028572c28.571429 46.742857 51.771429 97.714286 65.485715 136.228571 9.257143 5.257143 17.028571 10.857143 23.657142 16.914286 21.828571 19.885714 26.4 41.028571 26.4 55.314285 0 20.228571-7.885714 53.942857-21.142857 90.057143-11.542857 31.428571-32.457143 79.542857-67.2 130.4-43.542857 63.885714-115.085714 140.685714-224.114285 184.914286 12.228571 9.028571 21.714286 16.457143 28.914285 22.742857 8.914286 7.771429 27.314286 23.885714 27.314286 49.142857 0 14.971429-6.171429 42.171429-47.542857 57.028572-13.257143 4.685714-30.285714 8.685714-52.114286 12-40.114286 6.171429-93.142857 9.485714-149.142857 9.485714z" fill="#25467A" p-id="5285"></path><path d="M713.028571 945.485714c0 16.8-89.942857 30.514286-201.028571 30.514286s-201.028571-13.6-201.028571-30.514286S512 803.885714 512 803.885714s201.028571 124.8 201.028571 141.6z" fill="#B2EBF2" p-id="5286"></path><path d="M662.971429 945.485714c0 16.8-67.657143 30.514286-150.971429 30.514286s-150.971429-13.6-150.971429-30.514286S512 803.885714 512 803.885714s150.971429 124.8 150.971429 141.6z" fill="#E0F7FA" p-id="5287"></path><path d="M512 803.885714l-28 171.542857c-18.857143-0.685714-36.342857-2.171429-52-4.114285l80-167.428572z" fill="#FFFFFF" p-id="5288"></path><path d="M54.857143 468.342857c0-50.857143 204.685714-92 457.142857-92s457.142857 41.257143 457.142857 92S865.371429 861.714286 512 861.714286 54.857143 519.2 54.857143 468.342857z" fill="#B2EBF2" p-id="5289"></path><path d="M110.971429 467.314286c0-50.285714 179.542857-91.085714 401.028571-91.085715s401.028571 40.8 401.028571 91.085715S822.057143 856.457143 512 856.457143 110.971429 517.6 110.971429 467.314286z" fill="#E9F9FB" p-id="5290"></path><path d="M54.857143 468.342857a457.142857 92 0 1 0 914.285714 0 457.142857 92 0 1 0-914.285714 0Z" fill="#80DEEA" p-id="5291"></path><path d="M932.685714 449.6c-10.057143-56.457143-101.942857-264.914286-196-279.657143-3.2-0.457143-6.4-0.8-9.714285-0.914286C657.028571 100.914286 579.542857 48 512 48S366.971429 100.914286 297.028571 169.028571c-3.314286 0.114286-6.514286 0.342857-9.714285 0.914286C193.257143 184.685714 101.371429 393.142857 91.314286 449.6c-1.6 4.685714-2.4 8.571429-2.4 11.314286 0 47.885714 189.371429 76.914286 423.085714 76.914285s423.085714-29.028571 423.085714-76.914285c0-2.742857-0.8-6.514286-2.4-11.314286z" fill="#FEF8E2" p-id="5292"></path><path d="M884.114286 326.514286c-0.228571 34.285714-72-50.4-100-98.285715-18.628571-31.885714-71.657143-25.485714-88.8-6.628571-26.4 28.914286 32.914286 119.428571-8.457143 130.971429-29.142857 8.114286-25.6-38.514286-40.114286-45.257143-38.971429-18.171429-8.342857-45.828571-52.228571-77.942857-26.857143-19.542857-77.257143-16.228571-94.057143 4.457142-26.171429 32.114286 37.6 94.971429 11.314286 121.714286-13.028571 13.371429-44.914286 14.171429-58.4 1.485714-28.228571-26.514286 35.542857-101.257143 8.114285-126.171428-12.571429-11.428571-67.657143-12.114286-85.942857-3.657143-57.828571 26.742857-11.657143 120-59.885714 132.8-11.2 2.971429-26.971429 1.942857-34.057143-5.942857-21.942857-24.457143 39.657143-97.257143 19.885714-124.685714-15.885714-22.057143-126.4 47.885714-104.571428 7.085714 27.885714-35.085714 58.971429-61.485714 90.285714-66.4 3.2-0.457143 6.4-0.8 9.714286-0.914286C366.971429 100.914286 444.457143 48 512 48s145.028571 52.914286 214.971429 121.028571c3.314286 0.114286 6.514286 0.342857 9.714285 0.914286 55.314286 8.685714 109.828571 84.228571 147.428572 156.571429z" fill="#FADD60" p-id="5293"></path><path d="M512 793.257143c-35.314286 0-64-28.685714-64-64 0-7.085714 5.714286-12.8 12.8-12.8s12.8 5.714286 12.8 12.8c0 21.257143 17.142857 38.4 38.4 38.4s38.4-17.142857 38.4-38.4c0-7.085714 5.714286-12.8 12.8-12.8s12.8 5.714286 12.8 12.8c0 35.314286-28.685714 64-64 64zM345.6 626.857143c0 21.257143 17.142857 38.4 38.4 38.4s38.4-17.142857 38.4-38.4-17.142857-38.4-38.4-38.4c-21.142857 0-38.4 17.142857-38.4 38.4zM601.6 626.857143c0 21.257143 17.142857 38.4 38.4 38.4s38.4-17.142857 38.4-38.4-17.142857-38.4-38.4-38.4c-21.142857 0-38.4 17.142857-38.4 38.4z" fill="#25467A" p-id="5294"></path><path d="M332.8 690.857143h-51.2c-14.171429 0-25.6 11.428571-25.6 25.6 0 14.171429 11.428571 25.6 25.6 25.6h51.2c14.171429 0 25.6-11.428571 25.6-25.6 0-14.171429-11.428571-25.6-25.6-25.6z m409.6 0h-51.2c-14.171429 0-25.6 11.428571-25.6 25.6 0 14.171429 11.428571 25.6 25.6 25.6h51.2c14.171429 0 25.6-11.428571 25.6-25.6 0-14.171429-11.428571-25.6-25.6-25.6z" fill="#26C6DA" p-id="5295"></path><path d="M644.571429 99.771429c-12.571429-3.314286-24.457143-3.428571-34.057143 2.742857-17.714286 11.314286-10.628571 32.8-29.028572 42.057143-25.371429 12.8-48.914286-22.857143-100-30.4-42.057143-6.285714-48.342857 14.514286-107.314285 18.857142-12 0.914286-25.028571 1.028571-37.942858 0.342858C395.085714 83.314286 456.8 48 512 48c41.714286 0 87.314286 20.228571 132.571429 51.771429z" fill="#F5A816" p-id="5296"></path><path d="M887.314286 130.171429l-37.6 137.485714-69.714286 254.628571c-19.314286 2.742857-40 5.028571-61.942857 7.085715L805.142857 211.428571l26.4-96.457142c1.371429-5.142857 6.742857-8.114286 11.771429-6.742858l37.371428 10.171429c5.028571 1.371429 8 6.628571 6.628572 11.771429z" fill="#29B6F6" p-id="5297"></path></svg>
